<?xml version="1.0" encoding="UTF-8" standalone="no"?>
<!-- Created with Inkscape (http://www.inkscape.org/) -->

<svg
   xmlns:dc="http://purl.org/dc/elements/1.1/"
   xmlns:cc="http://creativecommons.org/ns#"
   xmlns:rdf="http://www.w3.org/1999/02/22-rdf-syntax-ns#"
   xmlns:svg="http://www.w3.org/2000/svg"
   xmlns="http://www.w3.org/2000/svg"
   xmlns:xlink="http://www.w3.org/1999/xlink"
   xmlns:sodipodi="http://sodipodi.sourceforge.net/DTD/sodipodi-0.dtd"
   xmlns:inkscape="http://www.inkscape.org/namespaces/inkscape"
   width="744.09448819"
   height="1052.3622047"
   id="svg2"
   version="1.1"
   inkscape:version="0.47 r22583"
   sodipodi:docname="New document 1">
  <defs
     id="defs4">
    <linearGradient
       inkscape:collect="always"
       id="linearGradient4792">
      <stop
         style="stop-color:#ffffff;stop-opacity:1;"
         offset="0"
         id="stop4794" />
      <stop
         style="stop-color:#ffffff;stop-opacity:0;"
         offset="1"
         id="stop4796" />
    </linearGradient>
    <linearGradient
       inkscape:collect="always"
       id="linearGradient4724">
      <stop
         style="stop-color:#ffffff;stop-opacity:1;"
         offset="0"
         id="stop4726" />
      <stop
         style="stop-color:#ffffff;stop-opacity:0;"
         offset="1"
         id="stop4728" />
    </linearGradient>
    <linearGradient
       id="linearGradient4704"
       inkscape:collect="always">
      <stop
         id="stop4706"
         offset="0"
         style="stop-color:#fffffd;stop-opacity:0.87083334" />
      <stop
         id="stop4708"
         offset="1"
         style="stop-color:#ffffff;stop-opacity:0" />
    </linearGradient>
    <linearGradient
       id="linearGradient4542">
      <stop
         style="stop-color:#ffffff;stop-opacity:1"
         offset="0"
         id="stop4544" />
      <stop
         style="stop-color:#ffffff;stop-opacity:0"
         offset="1"
         id="stop4546" />
    </linearGradient>
    <linearGradient
       id="linearGradient4355">
      <stop
         style="stop-color:#ffffff;stop-opacity:1;"
         offset="0"
         id="stop4357" />
      <stop
         style="stop-color:#ff0000;stop-opacity:0;"
         offset="1"
         id="stop4359" />
    </linearGradient>
    <linearGradient
       id="linearGradient4273">
      <stop
         style="stop-color:#660000;stop-opacity:1;"
         offset="0"
         id="stop4275" />
      <stop
         style="stop-color:#cd0000;stop-opacity:1;"
         offset="1"
         id="stop4277" />
    </linearGradient>
    <inkscape:perspective
       sodipodi:type="inkscape:persp3d"
       inkscape:vp_x="97.644653 : 1052.0911 : 1"
       inkscape:vp_y="0 : 263.5213 : 0"
       inkscape:vp_z="293.7294 : 1052.0911 : 1"
       inkscape:persp3d-origin="195.68703 : 1005.8712 : 1"
       id="perspective10" />
    <inkscape:perspective
       id="perspective3074"
       inkscape:persp3d-origin="0.5 : 0.33333333 : 1"
       inkscape:vp_z="1 : 0.5 : 1"
       inkscape:vp_y="0 : 1000 : 0"
       inkscape:vp_x="0 : 0.5 : 1"
       sodipodi:type="inkscape:persp3d" />
    <inkscape:perspective
       id="perspective3356"
       inkscape:persp3d-origin="0.5 : 0.33333333 : 1"
       inkscape:vp_z="1 : 0.5 : 1"
       inkscape:vp_y="0 : 1000 : 0"
       inkscape:vp_x="0 : 0.5 : 1"
       sodipodi:type="inkscape:persp3d" />
    <radialGradient
       inkscape:collect="always"
       xlink:href="#linearGradient4273"
       id="radialGradient4279"
       cx="357.43192"
       cy="629.10762"
       fx="357.43192"
       fy="629.10762"
       r="235.73197"
       gradientTransform="matrix(1,0,0,0.9458188,0,34.085803)"
       gradientUnits="userSpaceOnUse" />
    <inkscape:perspective
       id="perspective4428"
       inkscape:persp3d-origin="0.5 : 0.33333333 : 1"
       inkscape:vp_z="1 : 0.5 : 1"
       inkscape:vp_y="0 : 1000 : 0"
       inkscape:vp_x="0 : 0.5 : 1"
       sodipodi:type="inkscape:persp3d" />
    <filter
       inkscape:collect="always"
       id="filter4614">
      <feGaussianBlur
         inkscape:collect="always"
         stdDeviation="0.24978298"
         id="feGaussianBlur4616" />
    </filter>
    <linearGradient
       inkscape:collect="always"
       xlink:href="#linearGradient4704"
       id="linearGradient4691"
       x1="340.53519"
       y1="913.62561"
       x2="341.79642"
       y2="863.17596"
       gradientUnits="userSpaceOnUse" />
    <linearGradient
       inkscape:collect="always"
       xlink:href="#linearGradient4724"
       id="linearGradient4730"
       x1="348.13721"
       y1="249.32307"
       x2="349.99451"
       y2="502.95496"
       gradientUnits="userSpaceOnUse" />
    <linearGradient
       inkscape:collect="always"
       xlink:href="#linearGradient4724"
       id="linearGradient4758"
       gradientUnits="userSpaceOnUse"
       x1="348.13721"
       y1="249.32307"
       x2="349.99451"
       y2="502.95496" />
    <linearGradient
       inkscape:collect="always"
       xlink:href="#linearGradient4724"
       id="linearGradient4762"
       gradientUnits="userSpaceOnUse"
       x1="348.13721"
       y1="249.32307"
       x2="349.99451"
       y2="502.95496" />
    <linearGradient
       inkscape:collect="always"
       xlink:href="#linearGradient4542"
       id="linearGradient4770"
       gradientUnits="userSpaceOnUse"
       x1="180.69005"
       y1="313.83752"
       x2="343.01318"
       y2="651.65991" />
    <radialGradient
       inkscape:collect="always"
       xlink:href="#linearGradient4792"
       id="radialGradient4798"
       cx="306.99524"
       cy="760.13856"
       fx="306.99524"
       fy="760.13856"
       r="113.75231"
       gradientTransform="matrix(1,0,0,1.0093324,0,-7.0939425)"
       gradientUnits="userSpaceOnUse" />
    <radialGradient
       inkscape:collect="always"
       xlink:href="#linearGradient4792"
       id="radialGradient4802"
       gradientUnits="userSpaceOnUse"
       gradientTransform="matrix(1,0,0,1.0093324,0,-7.0939425)"
       cx="306.99524"
       cy="760.13856"
       fx="306.99524"
       fy="760.13856"
       r="113.75231" />
    <radialGradient
       inkscape:collect="always"
       xlink:href="#linearGradient4792"
       id="radialGradient4807"
       gradientUnits="userSpaceOnUse"
       gradientTransform="matrix(0.5354589,-0.23678183,0.23899157,0.54045602,-38.940345,421.97638)"
       cx="306.99524"
       cy="760.13856"
       fx="306.99524"
       fy="760.13856"
       r="113.75231" />
    <radialGradient
       inkscape:collect="always"
       xlink:href="#linearGradient4792"
       id="radialGradient4813"
       gradientUnits="userSpaceOnUse"
       gradientTransform="matrix(1,0,0,1.0093324,0,-7.0939425)"
       cx="306.99524"
       cy="760.13856"
       fx="306.99524"
       fy="760.13856"
       r="113.75231" />
    <radialGradient
       inkscape:collect="always"
       xlink:href="#linearGradient4792"
       id="radialGradient4815"
       gradientUnits="userSpaceOnUse"
       gradientTransform="matrix(0.5354589,-0.23678183,0.23899157,0.54045602,-38.940345,421.97638)"
       cx="306.99524"
       cy="760.13856"
       fx="306.99524"
       fy="760.13856"
       r="113.75231" />
    <linearGradient
       inkscape:collect="always"
       xlink:href="#linearGradient4542"
       id="linearGradient4834"
       gradientUnits="userSpaceOnUse"
       x1="180.69005"
       y1="313.83752"
       x2="343.01318"
       y2="651.65991" />
    <linearGradient
       inkscape:collect="always"
       xlink:href="#linearGradient4704"
       id="linearGradient4836"
       gradientUnits="userSpaceOnUse"
       x1="340.53519"
       y1="913.62561"
       x2="341.79642"
       y2="863.17596" />
    <linearGradient
       inkscape:collect="always"
       xlink:href="#linearGradient4724"
       id="linearGradient4838"
       gradientUnits="userSpaceOnUse"
       x1="348.13721"
       y1="249.32307"
       x2="349.99451"
       y2="502.95496" />
    <linearGradient
       inkscape:collect="always"
       xlink:href="#linearGradient4724"
       id="linearGradient4840"
       gradientUnits="userSpaceOnUse"
       x1="348.13721"
       y1="249.32307"
       x2="349.99451"
       y2="502.95496" />
    <linearGradient
       inkscape:collect="always"
       xlink:href="#linearGradient4724"
       id="linearGradient4842"
       gradientUnits="userSpaceOnUse"
       x1="348.13721"
       y1="249.32307"
       x2="349.99451"
       y2="502.95496" />
  </defs>
  <sodipodi:namedview
     id="base"
     pagecolor="#ffffff"
     bordercolor="#666666"
     borderopacity="1.0"
     inkscape:pageopacity="0.0"
     inkscape:pageshadow="2"
     inkscape:zoom="0.28032174"
     inkscape:cx="283.52179"
     inkscape:cy="233.28229"
     inkscape:document-units="px"
     inkscape:current-layer="layer1"
     showgrid="false"
     objecttolerance="20"
     showguides="true"
     inkscape:guide-bbox="true"
     gridtolerance="10"
     inkscape:window-width="1440"
     inkscape:window-height="754"
     inkscape:window-x="0"
     inkscape:window-y="0"
     inkscape:window-maximized="0" />
  <metadata
     id="metadata7">
    <rdf:RDF>
      <cc:Work
         rdf:about="">
        <dc:format>image/svg+xml</dc:format>
        <dc:type
           rdf:resource="http://purl.org/dc/dcmitype/StillImage" />
        <dc:title></dc:title>
      </cc:Work>
    </rdf:RDF>
  </metadata>
  <g
     inkscape:label="Layer 1"
     inkscape:groupmode="layer"
     id="layer1">
    <path
       sodipodi:type="arc"
       style="opacity:0.9;color:#000000;fill:#000000;fill-opacity:0;fill-rule:evenodd;stroke:none;stroke-width:1;marker:none;visibility:visible;display:inline;overflow:visible;enable-background:accumulate"
       id="path4634"
       sodipodi:cx="-57.077271"
       sodipodi:cy="954.26062"
       sodipodi:rx="55.293606"
       sodipodi:ry="74.913918"
       d="m -1.7836647,954.26062 a 55.293606,74.913918 0 1 1 -110.5872153,0 55.293606,74.913918 0 1 1 110.5872153,0 z" />
    <g
       id="g4817"
       transform="translate(28.538635,-14.269318)">
      <g
         transform="translate(-6.5207912,48)"
         id="g4746">
        <path
           style="font-size:medium;font-style:normal;font-variant:normal;font-weight:normal;font-stretch:normal;text-indent:0;text-align:start;text-decoration:none;line-height:normal;letter-spacing:normal;word-spacing:normal;text-transform:none;direction:ltr;block-progression:tb;writing-mode:lr-tb;text-anchor:start;color:#000000;fill:#000000;fill-opacity:1;stroke:none;stroke-width:10;marker:none;visibility:visible;display:inline;overflow:visible;enable-background:accumulate;font-family:Bitstream Vera Sans;-inkscape-font-specification:Bitstream Vera Sans"
           d="m 422.75,102 c -4.76602,0.0242 -9.91871,1.3551 -14.375,4.28125 -4.45629,2.92615 -8.29526,8.08915 -8.09375,14.5 0.62997,2.45284 0.29225,4.62735 0.15625,7.09375 0,7.31393 5.93607,13.25 13.25,13.25 7.31393,0 13.25,-5.93607 13.25,-13.25 0,-7.23967 -5.81988,-13.1313 -13.03125,-13.25 2.50127,-1.62919 6.20706,-2.61131 8.90625,-2.625 10.54696,-0.0535 18.26433,5.81609 23.875,14.71875 5.61067,8.90266 8.49987,20.73886 8.3125,30.375 -0.46947,24.14425 -12.34671,44.32843 -29.9375,59.84375 -17.59079,15.51532 -40.85212,26.09287 -62.9375,30.25 L 363.96875,257 c 23.83248,-4.48599 48.55092,-15.65621 67.71875,-32.5625 C 450.85533,207.53121 464.46839,184.6209 465,157.28125 465.22753,145.57959 462.0175,132.26201 455.15625,121.375 448.295,110.48799 437.17318,101.92683 422.75,102 z"
           id="path4732"
           sodipodi:nodetypes="csccsscssssccsssc" />
        <path
           sodipodi:nodetypes="csccsscssssccsssc"
           id="path4744"
           d="m 276.37029,102 c 4.76602,0.0242 9.91871,1.3551 14.375,4.28125 4.45629,2.92615 8.29526,8.08915 8.09375,14.5 -0.62997,2.45284 -0.29225,4.62735 -0.15625,7.09375 0,7.31393 -5.93607,13.25 -13.25,13.25 -7.31393,0 -13.25,-5.93607 -13.25,-13.25 0,-7.23967 5.81988,-13.1313 13.03125,-13.25 -2.50127,-1.62919 -6.20706,-2.61131 -8.90625,-2.625 -10.54696,-0.0535 -18.26433,5.81609 -23.875,14.71875 -5.61067,8.90266 -8.49987,20.73886 -8.3125,30.375 0.46947,24.14425 12.34671,44.32843 29.9375,59.84375 17.59079,15.51532 40.85212,26.09287 62.9375,30.25 L 335.15154,257 c -23.83248,-4.48599 -48.55092,-15.65621 -67.71875,-32.5625 -19.16783,-16.90629 -32.78089,-39.8166 -33.3125,-67.15625 -0.22753,-11.70166 2.9825,-25.01924 9.84375,-35.90625 6.86125,-10.88701 17.98307,-19.44817 32.40625,-19.375 z"
           style="font-size:medium;font-style:normal;font-variant:normal;font-weight:normal;font-stretch:normal;text-indent:0;text-align:start;text-decoration:none;line-height:normal;letter-spacing:normal;word-spacing:normal;text-transform:none;direction:ltr;block-progression:tb;writing-mode:lr-tb;text-anchor:start;color:#000000;fill:#000000;fill-opacity:1;stroke:none;stroke-width:10;marker:none;visibility:visible;display:inline;overflow:visible;enable-background:accumulate;font-family:Bitstream Vera Sans;-inkscape-font-specification:Bitstream Vera Sans" />
      </g>
      <path
         id="path4436"
         d="m 333.15625,246.125 c -56.87425,2.47555 -111.87969,30.34319 -148.49644,73.35454 -18.90335,20.65539 -36.66601,43.73714 -44.84731,70.98921 0.12006,4.347 1.72155,8.45092 2.9375,12.65625 -12.17641,0.87692 -27.33225,-0.74696 -35.6875,9.875 -15.271231,16.88993 -18.868295,40.29841 -26.430079,61.04643 -34.26569,118.4495 -16.58053,253.60491 56.398929,354.19564 39.47474,54.14621 98.43956,97.03766 165.8749,107.91418 11.26687,1.15149 24.19266,4.27422 34.53125,-1.71875 3.80339,-3.29409 9.42034,-2.388 12.65625,1.09375 14.07574,7.27212 30.05478,0.17976 44.53125,-1.625 68.92946,-15.1851 128.16534,-62.48625 165.23979,-121.52115 68.62715,-106.04172 79.93064,-244.93143 37.5092,-363.2316 -5.69839,-14.11508 -11.28362,-29.20795 -22.46774,-39.966 -7.44296,-5.22041 -16.82819,-6.99784 -25.84375,-7.53125 5.89883,-11.92957 1.93336,-26.15436 -6.64458,-35.63567 C 511.49866,315.35317 465.48717,271.603 407.62839,254.30159 383.43397,247.49488 358.19673,245.87793 333.15625,246.125 z"
         style="color:#000000;fill:#2b0000;stroke:none;stroke-width:1;marker:none;visibility:visible;display:inline;overflow:visible;enable-background:accumulate" />
      <path
         sodipodi:nodetypes="cssscsscssssc"
         id="path3365"
         d="m 340.57431,260.02159 c -0.38696,0.01 -0.80786,0.0286 -1.25,0.0625 -19.86377,1.52324 -40.16906,3.47729 -59.125,10.125 -54.25485,19.02678 -95.65082,63.21835 -124,112.15625 -4.321,7.45914 -1.36587,18.05324 7.375,18.8125 60.793,0.16016 121.57914,0.017 182.375,0.0625 0.0521,-4e-5 0.10417,4e-5 0.15625,0 60.79586,-0.0455 121.61325,0.0977 182.40625,-0.0625 8.74087,-0.75926 11.66475,-11.35336 7.34375,-18.8125 -28.34918,-48.9379 -69.74515,-93.12947 -124,-112.15625 -18.95594,-6.64771 -39.26123,-8.60176 -59.125,-10.125 -5.0859,-0.39001 -4.27183,1.30378 -6.62022,1.18613 -2.34838,-0.11765 -1.47409,-1.35043 -5.53603,-1.24863 z"
         style="color:#000000;fill:#000000;fill-opacity:1;stroke:none;stroke-width:1;marker:none;visibility:visible;display:inline;overflow:visible;enable-background:accumulate" />
      <g
         id="g4503">
        <path
           style="color:#000000;fill:#b20000;fill-opacity:1;stroke:none;stroke-width:1;marker:none;visibility:visible;display:inline;overflow:visible;enable-background:accumulate"
           d="m 384.25839,416.43161 c -17.77678,0 -32.19201,14.58531 -32.19201,32.57179 l 0,463.02184 c 0.008,6.57209 0.008,11.46919 8.63096,12.38791 135.90967,-7.5217 247.48172,-152.74748 247.48172,-330.26152 0,-58.57452 -11.79754,-113.57473 -32.49485,-161.26557 -0.0993,0.0456 -0.16384,0.0599 -0.1817,0 -0.31652,-1.06114 -0.72403,-2.10395 -1.18108,-3.09477 -0.0539,-0.12126 -0.0974,-0.24655 -0.15142,-0.3677 -0.0201,-0.0417 -0.0402,-0.0811 -0.0605,-0.12257 -3.73959,-7.63724 -11.50782,-12.86937 -20.50234,-12.86937 l -169.34872,0 0,-4e-5 z"
           id="path3362"
           sodipodi:nodetypes="ccccscssssccc" />
        <path
           sodipodi:nodetypes="ccccscssssccc"
           id="path4267"
           d="m 301.80349,416.43161 c 17.77678,0 32.19201,14.58531 32.19201,32.57179 l 0,463.02184 c -0.008,6.57209 -0.008,11.46919 -8.63096,12.38791 C 189.45487,916.89145 77.882834,771.66567 77.882834,594.15163 c 0,-58.57452 11.797535,-113.57473 32.494836,-161.26557 0.0993,0.0456 0.16384,0.0599 0.18171,0 0.31651,-1.06114 0.72403,-2.10395 1.18108,-3.09477 0.0539,-0.12126 0.0974,-0.24655 0.15142,-0.3677 0.0201,-0.0417 0.0402,-0.0811 0.0605,-0.12257 3.73959,-7.63724 11.50782,-12.86937 20.50234,-12.86937 l 169.34872,0 0,-4e-5 z"
           style="color:#000000;fill:#b20000;fill-opacity:1;stroke:none;stroke-width:1;marker:none;visibility:visible;display:inline;overflow:visible;enable-background:accumulate" />
      </g>
      <path
         id="path4641"
         d="M 153.65625,429.875 133.125,455.40625 100.46875,452.96875 118.40625,480.375 106,510.6875 l 31.625,-8.59375 25,21.1875 1.59375,-32.71875 27.84375,-17.25 -30.625,-11.625 -7.78125,-31.8125 z m 102.40625,31.0625 -17.40625,87.28125 -81.75,35.15625 77.625,43.5 8.1875,88.625 65.375,-60.375 86.78125,19.59375 -37.21875,-80.8125 45.46875,-76.5 -88.375,10.4375 -58.6875,-66.90625 z m 266.8125,40.28125 -20.53125,25.53125 -32.65625,-2.4375 17.9375,27.40625 -12.40625,30.3125 31.625,-8.59375 25,21.1875 1.59375,-32.71875 27.84375,-17.25 -30.625,-11.625 -7.78125,-31.8125 z m -394.4375,156.46875 -24.78125,50.21875 -23.3125,3.375 c 8.128853,27.99942 19.26187,55.07763 33.46875,80.5625 l 14.625,-7.6875 49.53125,26.0625 -9.46875,-55.1875 40.09375,-39.09375 -55.40625,-8.03125 -24.75,-50.21875 z m 407.125,4.625 -49.09375,55.9375 -73.875,-8.71875 38.03125,63.9375 -31.125,67.59375 72.5625,-16.40625 34.125,31.53125 c 9.07646,-9.75304 17.49057,-20.12553 25.125,-30.96875 l 2.21875,-24.15625 19.6875,-11.03125 c 6.63445,-12.04677 12.56601,-24.45208 17.84375,-37.125 L 550.09375,735.28125 535.5625,662.3125 z M 291,813.34375 270.46875,838.875 237.8125,836.4375 255.75,863.875 l -12.40625,30.3125 31.625,-8.59375 25,21.15625 1.59375,-32.71875 27.84375,-17.21875 -30.625,-11.625 L 291,813.34375 z"
         style="color:#000000;fill:#000000;fill-opacity:0.75;fill-rule:evenodd;stroke:none;stroke-width:1;marker:none;visibility:visible;display:inline;overflow:visible;enable-background:accumulate" />
      <path
         id="path4509"
         d="m 301.1875,426.09375 c -0.6115,-0.0161 -1.23223,-0.004 -1.84375,0.0312 -57.60038,1.77212 -115.30019,-2.01983 -172.84375,1.96875 -12.74866,11.36212 -13.59445,29.82989 -20.25,44.59375 -20.082062,63.50029 -23.874856,132.48803 -11.03125,197.96875 68.39576,-26.10246 146.17364,-41.73577 228.90625,-43.8125 0.0696,-62.00766 -0.12601,-124.02132 -1.53125,-185.96875 -3.25667,-8.64386 -12.23377,-14.54045 -21.40625,-14.78125 z m 242.96875,0.0625 c -7.46769,0.0909 -15.01618,0.86001 -22.4375,0.46875 -29.39668,0.15983 -58.79071,-0.5992 -88.1875,-0.40625 -19.53653,0.21976 -39.23218,0.37509 -58.625,2.21875 -12.79825,6.57071 -15.48202,23.18446 -12.84375,36.15625 0.19599,54.07935 0.0975,108.16959 0,162.25 82.69152,2.08256 160.41337,17.69549 228.78125,43.78125 14.20873,-72.71078 7.96895,-149.58439 -18.34375,-218.78125 -3.88846,-8.6865 -6.96255,-19.25424 -15.03125,-24.71875 -4.38394,-0.83699 -8.83189,-1.02328 -13.3125,-0.96875 z"
         style="opacity:0.9;color:#000000;fill:url(#linearGradient4834);fill-opacity:1;stroke:none;stroke-width:1;marker:none;visibility:visible;display:inline;overflow:visible;filter:url(#filter4614);enable-background:accumulate" />
      <path
         d="m 574.34004,677.7926 c 0,51.22472 -101.0196,92.75057 -225.63359,92.75057 -124.61399,0 -225.63359,-41.52585 -225.63359,-92.75057 0,-51.22472 101.0196,-92.75056 225.63359,-92.75056 124.61399,0 225.63359,41.52584 225.63359,92.75056 z"
         sodipodi:ry="92.750565"
         sodipodi:rx="225.63359"
         sodipodi:cy="677.7926"
         sodipodi:cx="348.70645"
         id="path4636"
         style="opacity:0.9;color:#000000;fill:#000000;fill-opacity:0;fill-rule:evenodd;stroke:none;stroke-width:1;marker:none;visibility:visible;display:inline;overflow:visible;enable-background:accumulate"
         sodipodi:type="arc" />
      <path
         id="path4679"
         d="m 181.84375,844.3125 c 35.95662,36.93191 82.89388,63.67794 134.5,69.40625 3.17219,0.97366 9.54523,0.66978 7.96875,-4.25 -0.29559,-11.22779 -0.41436,-22.45925 -0.46875,-33.6875 0.19649,-7.04966 0.19382,-5.64192 -5.0625,-2.40625 -53.16341,32.30705 -98.27738,-6.90457 -136.9375,-29.0625 z m 320.5625,2.53125 c -38.66012,22.15793 -83.77409,61.36955 -136.9375,29.0625 -5.25632,-3.23567 -5.25899,-4.64341 -5.0625,2.40625 -0.0544,11.22825 -0.17316,22.45971 -0.46875,33.6875 -1.57648,4.91978 4.79656,5.22366 7.96875,4.25 51.60612,-5.72831 98.54338,-32.47434 134.5,-69.40625 z"
         style="opacity:0.45901639;color:#000000;fill:url(#linearGradient4836);fill-opacity:1;stroke:none;stroke-width:1;marker:none;visibility:visible;display:inline;overflow:visible;enable-background:accumulate" />
      <path
         transform="matrix(0.73666378,0,0,0.6633055,87.121281,91.123715)"
         d="m 542.33382,420.48022 c 0,94.73277 -86.11325,171.52884 -192.33931,171.52884 -106.22607,0 -192.33931,-76.79607 -192.33931,-171.52884 0,-94.73276 86.11324,-171.52883 192.33931,-171.52883 106.22606,0 192.33931,76.79607 192.33931,171.52883 z"
         sodipodi:ry="171.52884"
         sodipodi:rx="192.33931"
         sodipodi:cy="420.48022"
         sodipodi:cx="349.99451"
         id="path4722"
         style="color:#000000;fill:url(#linearGradient4838);fill-opacity:1;fill-rule:evenodd;stroke:none;stroke-width:1;marker:none;visibility:visible;display:inline;overflow:visible;enable-background:accumulate"
         sodipodi:type="arc" />
      <path
         sodipodi:type="arc"
         style="color:#000000;fill:url(#linearGradient4840);fill-opacity:1;fill-rule:evenodd;stroke:none;stroke-width:1;marker:none;visibility:visible;display:inline;overflow:visible;enable-background:accumulate"
         id="path4756"
         sodipodi:cx="349.99451"
         sodipodi:cy="420.48022"
         sodipodi:rx="192.33931"
         sodipodi:ry="171.52884"
         d="m 542.33382,420.48022 c 0,94.73277 -86.11325,171.52884 -192.33931,171.52884 -106.22607,0 -192.33931,-76.79607 -192.33931,-171.52884 0,-94.73276 86.11324,-171.52883 192.33931,-171.52883 106.22606,0 192.33931,76.79607 192.33931,171.52883 z"
         transform="matrix(0.04051754,0,0,0.04737149,264.99714,152.2857)" />
      <path
         transform="matrix(0.04051754,0,0,0.04737149,392.69783,152.2857)"
         d="m 542.33382,420.48022 c 0,94.73277 -86.11325,171.52884 -192.33931,171.52884 -106.22607,0 -192.33931,-76.79607 -192.33931,-171.52884 0,-94.73276 86.11324,-171.52883 192.33931,-171.52883 106.22606,0 192.33931,76.79607 192.33931,171.52883 z"
         sodipodi:ry="171.52884"
         sodipodi:rx="192.33931"
         sodipodi:cy="420.48022"
         sodipodi:cx="349.99451"
         id="path4760"
         style="color:#000000;fill:url(#linearGradient4842);fill-opacity:1;fill-rule:evenodd;stroke:none;stroke-width:1;marker:none;visibility:visible;display:inline;overflow:visible;enable-background:accumulate"
         sodipodi:type="arc" />
    </g>
  </g>
</svg>
